#!OML:ASF X:\2005_08_12_Meinard\c3d\meinard.ASF
:FULLY-SPECIFIED
:DEGREES
208
root 3.86392 16.4307 -0.224522 84.0144 -84.7534 -103.183
lowerback 41.2136 0.16437 4.57194
upperback 7.21382 1.0294 0.0318223
thorax -11.6255 -0.128534 -2.69594
lowerneck -13.5866 -6.40602 -8.66098
upperneck 0.879377 -7.84318 10.8433
head 3.2363 -3.5744 4.15422
rclavicle 2.5842e-015 -1.07344e-014
rhumerus -42.4414 -5.20681 -84.9234
rradius 54.4598
rwrist 35.209
rhand -5.50861 -4.17601
rfingers 7.12502
rthumb 20.3047 -33.1346
lclavicle 2.5842e-015 -1.07344e-014
lhumerus -41.4525 33.0886 61.0583
lradius 36.303
lwrist -229.18
lhand -18.9556 14.2765
lfingers 7.12502
lthumb 7.34802 44.1289
rfemur 7.42746 -5.86794 23.6346
rtibia 37.6403
rfoot -23.3637 -16.2592
rtoes 3.17099
lfemur -10.3769 11.2822 -14.4182
ltibia 54.3094
lfoot -19.0541 16.1578
ltoes 22.2041
209
root 3.8518 16.4209 -0.219154 84.7224 -84.7679 -103.812
lowerback 41.3642 0.401101 4.49484
upperback 7.18978 1.2993 0.0477649
thorax -11.6861 -0.00796476 -2.75695
lowerneck -13.6012 -6.62081 -8.78539
upperneck 0.679265 -8.11627 11.0867
head 3.2221 -3.70574 4.22667
rclavicle 9.93923e-017 3.57812e-015
rhumerus -42.4698 -5.09427 -84.7779
rradius 54.1582
rwrist 34.9903
rhand -5.53775 -4.24572
rfingers 7.12502
rthumb 20.2767 -33.2073
lclavicle 9.93923e-017 3.57812e-015
lhumerus -41.2874 32.3803 61.2879
lradius 36.201
lwrist -229.212
lhand -18.8585 13.9337
lfingers 7.12502
lthumb 7.44176 43.7828
rfemur 7.20915 -5.66896 23.6865
rtibia 37.9344
rfoot -23.4132 -16.4986
rtoes 3.56518
lfemur -10.6057 11.2827 -14.7665
ltibia 54.0441
lfoot -19.0261 16.0936
ltoes 21.244
210
root 3.83817 16.4091 -0.21404 85.6245 -84.7997 -104.638
lowerback 41.4924 0.662635 4.35268
upperback 7.17333 1.57258 0.0819965
thorax -11.7337 0.115803 -2.76627
lowerneck -13.6369 -6.82915 -8.91156
upperneck 0.4921 -8.37675 11.294
head 3.213 -3.83145 4.28844
rclavicle -1.83876e-014 -7.55382e-015
rhumerus -42.498 -4.97507 -84.6025
rradius 53.8729
rwrist 34.6937
rhand -5.64575 -4.3466
rfingers 7.12502
rthumb 20.1729 -33.3192
lclavicle -1.83876e-014 -7.55382e-015
lhumerus -41.0491 31.5594 61.6151
lradius 36.0758
lwrist -228.986
lhand -18.6253 13.5691
lfingers 7.12502
lthumb 7.66683 43.4101
rfemur 6.97078 -5.43808 23.7214
rtibia 38.2943
rfoot -23.4781 -16.7216
rtoes 3.81556
lfemur -10.7799 11.2638 -15.1206
ltibia 53.7796
lfoot -18.9822 16.0889
ltoes 20.0033
211
root 3.82336 16.3941 -0.208847 86.5035 -84.8814 -105.449
lowerback 41.5917 0.930289 4.17428
upperback 7.17797 1.82835 0.0769982
thorax -11.7505 0.233485 -2.79171
lowerneck -13.6276 -7.02769 -9.03817
upperneck 0.231314 -8.62633 11.5537
head 3.17753 -3.95315 4.36921
rclavicle -1.97791e-014 2.26615e-014
rhumerus -42.544 -4.91461 -84.4466
rradius 53.6734
rwrist 34.3286
rhand -5.71214 -4.45989
rfingers 7.12502
rthumb 20.1091 -33.4392
lclavicle -1.97791e-014 2.26615e-014
lhumerus -40.6746 30.5303 62.0203
lradius 35.9732
lwrist -228.488
lhand -18.4105 13.2004
lfingers 7.12502
lthumb 7.87417 43.0338
rfemur 6.7138 -5.19324 23.7078
rtibia 38.7321
rfoot -23.5167 -16.9625
rtoes 4.2742
lfemur -10.8822 11.1963 -15.5141
ltibia 53.4922
lfoot -18.9577 16.1565
ltoes 18.5497
212
root 3.80836 16.3778 -0.204165 87.4001 -85.0092 -106.287
lowerback 41.6779 1.202 3.93342
upperback 7.18613 2.05925 0.0599493
thorax -11.7639 0.341824 -2.78715
lowerneck -13.6031 -7.2378 -9.27252
upperneck -0.0162893 -8.87875 11.8723
head 3.15311 -4.07481 4.48507
rclavicle -2.23633e-014 6.75868e-015
rhumerus -42.6233 -4.79302 -84.2817
rradius 53.5405
rwrist 33.8677
rhand -5.81662 -4.62417
rfingers 7.12502
rthumb 20.0086 -33.614
lclavicle -2.23633e-014 6.75868e-015
lhumerus -40.2416 29.4203 62.4605
lradius 35.8566
lwrist -227.822
lhand -18.1235 12.8992
lfingers 7.12502
lthumb 8.15118 42.722
rfemur 6.43537 -4.94195 23.6375
rtibia 39.3011
rfoot -23.6563 -17.159
rtoes 4.58252
lfemur -10.9453 11.087 -15.9478
ltibia 53.2063
lfoot -18.9267 16.3141
ltoes 17.0831
213
root 3.79339 16.3668 -0.199636 88.3909 -85.1739 -107.223
lowerback 41.7491 1.48067 3.63334
upperback 7.20433 2.27064 0.0416086
thorax -11.7657 0.442995 -2.74461
lowerneck -13.5726 -7.44434 -9.58115
upperneck -0.261012 -9.11562 12.2116
head 3.13306 -4.18844 4.62052
rclavicle -2.46493e-014 1.47101e-014
rhumerus -42.742 -4.53699 -84.0889
rradius 53.502
rwrist 33.3095
rhand -5.96792 -4.78718
rfingers 7.12502
rthumb 19.8632 -33.7921
lclavicle -2.46493e-014 1.47101e-014
lhumerus -39.7819 28.3012 62.9058
lradius 35.7897
lwrist -227.018
lhand -17.9349 12.6698
lfingers 7.12502
lthumb 8.33311 42.4854
rfemur 6.11731 -4.66217 23.5336
rtibia 40.017
rfoot -23.8677 -17.3246
rtoes 4.26926
lfemur -10.9371 10.973 -16.4008
ltibia 52.8939
lfoot -18.9068 16.5471
ltoes 15.5166
214
root 3.77809 16.3486 -0.195892 89.4466 -85.3228 -108.28
lowerback 41.8547 1.76101 3.31445
upperback 7.23661 2.47221 0.0226231
thorax -11.7645 0.538807 -2.68873
lowerneck -13.5271 -7.63789 -9.87341
upperneck -0.525507 -9.33782 12.5555
head 3.10449 -4.29586 4.75671
rclavicle -2.84262e-014 1.82882e-014
rhumerus -42.8823 -4.33441 -83.868
rradius 53.5375
rwrist 32.7076
rhand -6.1172 -4.93777
rfingers 7.12502
rthumb 19.7197 -33.9575
lclavicle -2.84262e-014 1.82882e-014
lhumerus -39.2617 27.2016 63.3159
lradius 35.7277
lwrist -226.216
lhand -17.7763 12.5851
lfingers 7.12502
lthumb 8.48625 42.3946
rfemur 5.74261 -4.38271 23.4463
rtibia 40.9239
rfoot -24.0643 -17.499
rtoes 3.8932
lfemur -10.8475 10.8389 -16.8072
ltibia 52.6048
lfoot -18.8583 16.8759
ltoes 14.1786
215
root 3.76369 16.3308 -0.191478 90.3749 -85.4897 -109.238
lowerback 41.9566 2.05902 2.92367
upperback 7.2896 2.66135 0.011514
thorax -11.7437 0.630258 -2.58122
lowerneck -13.5172 -7.79793 -9.97805
upperneck -0.782796 -9.53502 12.7691
head 3.06557 -4.39432 4.82408
rclavicle -1.25234e-014 8.34896e-015
rhumerus -43.022 -4.29291 -83.5909
rradius 53.5969
rwrist 32.2521
rhand -6.21935 -4.97134
rfingers 7.12502
rthumb 19.6215 -34.0011
lclavicle -1.25234e-014 8.34896e-015
lhumerus -38.6708 26.1894 63.6828
lradius 35.6894
lwrist -225.462
lhand -17.7565 12.6029
lfingers 7.12502
lthumb 8.50531 42.4116
rfemur 5.23642 -4.1116 23.3408
rtibia 42.0256
rfoot -24.1685 -17.7527
rtoes 3.65765
lfemur -10.6927 10.679 -17.2159
ltibia 52.3181
lfoot -18.8117 17.3076
ltoes 12.9429
216
root 3.75021 16.3131 -0.187886 91.2483 -85.6425 -110.2
lowerback 42.1145 2.35735 2.49011
upperback 7.35642 2.82767 0.00308295
thorax -11.7288 0.710107 -2.43917
lowerneck -13.5493 -7.91816 -9.94556
upperneck -1.03782 -9.69391 12.9138
head 3.01951 -4.4754 4.85089
rclavicle -3.57812e-014 1.15295e-014
rhumerus -43.1314 -4.34727 -83.3355
rradius 53.6409
rwrist 31.9532
rhand -6.41964 -4.98559
rfingers 7.12502
rthumb 19.4289 -34.0349
lclavicle -3.57812e-014 1.15295e-014
lhumerus -38.0419 25.3216 63.9592
lradius 35.708
lwrist -224.753
lhand -17.8839 12.6796
lfingers 7.12502
lthumb 8.38241 42.4933
rfemur 4.60985 -3.87701 23.2405
rtibia 43.3717
rfoot -24.1893 -18.0546
rtoes 3.6065
lfemur -10.4439 10.5137 -17.5745
ltibia 52.0612
lfoot -18.7865 17.7977
ltoes 11.9303
217
root 3.7384 16.2946 -0.184192 91.9005 -85.7526 -111.021
lowerback 42.3523 2.64058 2.05923
upperback 7.43225 2.97216 0.00620219
thorax -11.7302 0.776932 -2.27765
lowerneck -13.5985 -7.99748 -9.78881
upperneck -1.26467 -9.81341 12.9743
head 2.969 -4.53901 4.83504
rclavicle 3.35946e-014 -4.77083e-015
rhumerus -43.2334 -4.44454 -83.064
rradius 53.702
rwrist 31.794
rhand -6.59351 -4.95028
rfingers 7.12502
rthumb 19.2617 -34.0164
lclavicle 3.35946e-014 -4.77083e-015
lhumerus -37.3655 24.5181 64.1888
lradius 35.7678
lwrist -224.158
lhand -18.1002 12.7811
lfingers 7.12502
lthumb 8.17361 42.603
rfemur 3.90442 -3.6362 23.1922
rtibia 44.9717
rfoot -23.8022 -18.3862
rtoes 3.558
lfemur -10.0922 10.3653 -17.845
ltibia 51.8118
lfoot -18.7605 18.2815
ltoes 11.0101
